# Aspose.3D Wavefront OBJ Exporter
# Copyright 2004-2022 Aspose Pty Ltd.
# File created: 03/24/2022 15:35:08

mtllib material.lib

#
# object Pathway_01
#

v -88.81946838159699104 -4.20128001002183192 -516.93829112001856176
v -134.92402023603122528 -4.20128001002184172 -516.93830009690623232
v 76.38031703033369976 -4.20128001002164096 345.12165892423337254
v 183.83678571496776048 -4.201280010021617 345.12167984678029598
v -61.36379646868359568 -4.2012800100218044 -395.50872197286412304
v -34.88216648388697648 -4.20128001002178576 -326.85252522503827776
v 39.65887579108749608 -4.20128001002176532 -306.255722052367787
v 43.58199727453774128 -4.20128001002174756 -210.13698915728346606
v 36.71642136007991296 -4.201280010021736 -135.59593191972157912
v 62.21728086755867084 -4.20128001002172268 -86.55588490433537176
v 71.04449443055874269 -4.2012800100217076 -18.88040444558083312
v 71.04448106271426866 -4.20128001002169604 49.77573799000374064
v 115.18063036470353212 -4.2012800100216774 95.87347803266384
v 214.2416069446974518 -4.2012800100216392 183.16510102401989002
v 215.22245332380876448 -4.20128001002162676 254.7636034078107344
v 76.92919622124738048 -4.20128001002164452 332.4983298239809528
v 95.56441938806777616 -4.20128001002164808 285.16860329650694438
v 154.41265215731206696 -4.20128001002164008 257.7060742151186332
v 125.9693376359981584 -4.20128001002165784 192.97302342830661808
v 72.02522378250722568 -4.20128001002167916 148.83685464744922912
v 35.73558855974261664 -4.20128001002169516 101.75840328093227072
v 13.17706117597864512 -4.20128001002170404 68.41101594442326928
v -12.32374974831416912 -4.20128001002171912 22.31327953019750508
v 10.23477425503844528 -4.20128001002172624 -53.20858581561399348
v -6.43893129180032184 -4.20128001002174136 -107.15266235314963694
v -28.99736189118222288 -4.20128001002175112 -132.65356037940415488
v -50.57507524663552088 -4.20128001002176444 -180.71294293537101792
v -84.90314646442782016 -4.20128001002177244 -180.71294961929328336
v -114.3271801393754288 -4.20128001002178308 -213.07942881663632306
v -111.38475709434624152 -4.20128001002179552 -285.65881533443030096
v -80.9798981238908056 -4.2012800100217964 -325.87172303681853696
v -106.48077953582280488 -4.20128001002181416 -388.64307718904643704
v -117.26958295163422008 -4.20128001002182396 -433.76002415299660704
v -88.81946838159699104 -1.1503450700015814E-13 -516.93829112001856176
v -134.92402023603122528 -1.252717740019218E-13 -516.93830009690623232
v 76.38031703033369976 7.536779946310607E-14 345.12165892423337254
v 183.83678571496776048 9.922792859882509E-14 345.12167984678029598
v -61.36379646868359568 -8.789112444787843E-14 -395.50872197286412304
v -34.88216648388697648 -6.961605501779243E-14 -326.85252522503827776
v 39.65887579108749608 -4.906000667465136E-14 -306.255722052367787
v 43.58199727453774128 -3.140819420416061E-14 -210.13698915728346606
v 36.71642136007991296 -2.0211015937852702E-14 -135.59593191972157912
v 62.21728086755867084 -6.103896912666439E-15 -86.55588490433537176
v 71.04449443055874269 8.196664056038631E-15 -18.88040444558083312
v 71.04448106271426866 2.0591624721409327E-14 49.77573799000374064
v 115.18063036470353212 3.867327813072448E-14 95.87347803266384
v 214.2416069446974518 7.695993360682258E-14 183.16510102401989002
v 215.22245332380876448 8.973602279186211E-14 254.7636034078107344
v 76.92919622124738048 7.192767932390116E-14 332.4983298239809528
v 95.56441938806777616 6.771568079522852E-14 285.16860329650694438
v 154.41265215731206696 7.639687524272768E-14 257.7060742151186332
v 125.9693376359981584 5.790400288430202E-14 192.97302342830661808
v 72.02522378250722568 3.7753433130809373E-14 148.83685464744922912
v 35.73558855974261664 2.1359615298433316E-14 101.75840328093227072
v 13.17706117597864512 1.1638203218411166E-14 68.41101594442326928
v -12.32374974831416912 -2.3055738431840266E-15 22.31327953019750508
v 10.23477425503844528 -1.0072663650230142E-14 -53.20858581561399348
v -6.43893129180032272 -2.53532491133785E-14 -107.15266235314963694
v -28.99736189118222288 -3.4639071708983224E-14 -132.65356037940415488
v -50.57507524663552088 -4.7820639483671185E-14 -180.71294293537101792
v -84.90314646442782016 -5.5443002495064357E-14 -180.71294961929328336
v -114.3271801393754288 -6.663441175045191E-14 -213.07942881663632306
v -111.38475709434624152 -7.85938102185083E-14 -285.65881533443030096
v -80.9798981238908056 -7.979736162849145E-14 -325.87172303681853696
v -106.48077953582280488 -9.75279864980655E-14 -388.64307718904643704
v -117.26958295163422008 -1.0815059702989606E-13 -433.76002415299660704
# 66 vertices

vn 2.220446049250313E-16 -1 0
vn 2.220446049250313E-16 -1 0
vn 2.220446049250313E-16 -1 0
vn 2.220446049250313E-16 -1 0
vn 2.220446049250313E-16 -1 0
vn 2.220446049250313E-16 -1 0
vn 2.220446049250313E-16 -1 0
vn 2.220446049250313E-16 -1 0
vn 2.220446049250313E-16 -1 0
vn 2.220446049250313E-16 -1 0
vn 2.220446049250313E-16 -1 0
vn 2.220446049250313E-16 -1 0
vn 2.220446049250313E-16 -1 0
vn 2.220446049250313E-16 -1 0
vn 2.220446049250313E-16 -1 0
vn 2.220446049250313E-16 -1 0
vn 2.220446049250313E-16 -1 0
vn 2.220446049250313E-16 -1 0
vn 2.220446049250313E-16 -1 0
vn 2.220446049250313E-16 -1 0
vn 2.220446049250313E-16 -1 0
vn 2.220446049250313E-16 -1 0
vn 2.220446049250313E-16 -1 0
vn 2.220446049250313E-16 -1 0
vn 2.220446049250313E-16 -1 0
vn 2.220446049250313E-16 -1 0
vn 2.220446049250313E-16 -1 0
vn 2.220446049250313E-16 -1 0
vn 2.220446049250313E-16 -1 0
vn 2.220446049250313E-16 -1 0
vn 2.220446049250313E-16 -1 0
vn 2.220446049250313E-16 -1 0
vn 2.220446049250313E-16 -1 0
vn -1.7099130868583406E-16 1 -1.1102230246251565E-16
vn -2.7410383219843184E-16 0.99999999999999984 -3.3306690738754696E-16
vn -2.639688182867381E-16 0.99999999999999984 -3.3306690738754696E-16
vn -2.528446816508882E-16 0.99999999999999984 -3.3306690738754696E-16
vn -2.6366524961937606E-16 0.99999999999999984 -3.3306690738754696E-16
vn -2.75553502617878E-16 0.99999999999999984 -2.220446049250313E-16
vn -2.75553502617878E-16 0.99999999999999984 -2.220446049250313E-16
vn -2.732063743210363E-16 0.99999999999999984 -3.3306690738754696E-16
vn -2.766098982868919E-16 0.99999999999999984 -3.3306690738754696E-16
vn -2.647030899728892E-16 0.99999999999999984 -3.3306690738754696E-16
vn -2.5889977608367437E-16 0.99999999999999984 -3.3306690738754696E-16
vn -1.7231408298186966E-16 0.99999999999999984 -2.220446049250313E-16
vn -7.496847741153437E-17 0.99999999999999984 -2.220446049250313E-16
vn -1.740477476666624E-16 0.99999999999999984 -2.220446049250313E-16
vn -2.72892389795401E-16 0.99999999999999984 -3.3306690738754696E-16
vn -2.6823100866798296E-16 0.99999999999999984 -3.3306690738754696E-16
vn -2.6467725546799794E-16 0.99999999999999984 -3.3306690738754696E-16
vn -3.423443533797049E-16 0.99999999999999984 -2.220446049250313E-16
vn -3.636272870242207E-16 0.99999999999999984 -3.3306690738754696E-16
vn -3.636272870242207E-16 0.99999999999999984 -3.3306690738754696E-16
vn -3.423443533797049E-16 0.99999999999999984 -2.220446049250313E-16
vn -2.6467725546799794E-16 0.99999999999999984 -3.3306690738754696E-16
vn -2.6823100866798296E-16 0.99999999999999984 -3.3306690738754696E-16
vn -2.72892389795401E-16 0.99999999999999984 -3.3306690738754696E-16
vn -2.4292581995942193E-16 0.99999999999999984 -2.220446049250313E-16
vn -2.639718887811719E-16 0.99999999999999984 -2.220446049250313E-16
vn -2.5351981984940907E-16 0.99999999999999984 -3.3306690738754696E-16
vn -2.673251069308945E-16 0.99999999999999984 -3.3306690738754696E-16
vn -2.712660335971135E-16 0.99999999999999984 -3.3306690738754696E-16
vn -2.697324804461096E-16 0.99999999999999984 -3.3306690738754696E-16
vn -2.6172958081155297E-16 0.99999999999999984 -3.3306690738754696E-16
vn -2.699837448289787E-16 0.99999999999999984 -3.3306690738754696E-16
vn -1.7099130868583406E-16 1 -1.1102230246251565E-16
vn 0.7223079359006248 2.220446049250313E-16 -0.69157163146000688
vn 0.7223079359006248 2.220446049250313E-16 -0.69157163146000688
vn 0.7223079359006248 2.220446049250313E-16 -0.69157163146000688
vn 0.7223079359006248 2.220446049250313E-16 -0.69157163146000688
vn -0.74899740006867472 -2.220446049250313E-16 0.66257295330118704
vn -0.74899740006867472 -2.220446049250313E-16 0.66257295330118704
vn -0.74899740006867472 -2.220446049250313E-16 0.66257295330118704
vn -0.74899740006867472 -2.220446049250313E-16 0.66257295330118704
vn 0.66113128965296752 2.220446049250313E-16 -0.75027023794170048
vn 0.66113128965296752 2.220446049250313E-16 -0.75027023794170048
vn 0.66113128965296752 2.220446049250313E-16 -0.75027023794170048
vn 0.66113128965296752 2.220446049250313E-16 -0.75027023794170048
vn -0.91226937401224256 -2.220446049250313E-16 0.4095909011328424
vn -0.91226937401224256 -2.220446049250313E-16 0.4095909011328424
vn -0.91226937401224256 -2.220446049250313E-16 0.4095909011328424
vn -0.91226937401224256 -2.220446049250313E-16 0.4095909011328424
vn 0.9999061849562368 2.220446049250313E-16 -0.01369797527264982
vn 0.9999061849562368 2.220446049250313E-16 -0.01369797527264982
vn 0.9999061849562368 2.220446049250313E-16 -0.01369797527264982
vn 0.9999061849562368 2.220446049250313E-16 -0.01369797527264982
vn -1.9470718870540082E-07 0 0.99999999999998096
vn -1.9470718870540082E-07 0 0.99999999999998096
vn -1.9470718870540082E-07 0 0.99999999999998096
vn -1.9470718870540082E-07 0 0.99999999999998096
vn 0.94463693667394912 4.440892098500626E-16 0.32811746512610996
vn 0.94463693667394912 4.440892098500626E-16 0.32811746512610996
vn 0.94463693667394912 4.440892098500626E-16 0.32811746512610996
vn 0.94463693667394912 4.440892098500626E-16 0.32811746512610996
vn 1.9470718870540082E-07 0 -0.99999999999998096
vn 1.9470718870540082E-07 0 -0.99999999999998096
vn 1.9470718870540082E-07 0 -0.99999999999998096
vn 1.9470718870540082E-07 0 -0.99999999999998096
vn -0.7399404166568608 -2.220446049250313E-16 0.6726724852846788
vn -0.7399404166568608 -2.220446049250313E-16 0.6726724852846788
vn -0.7399404166568608 -2.220446049250313E-16 0.6726724852846788
vn -0.7399404166568608 -2.220446049250313E-16 0.6726724852846788
vn -0.99905603278257408 -2.220446049250313E-16 -0.04344029060369536
vn -0.99905603278257408 -2.220446049250313E-16 -0.04344029060369536
vn -0.99905603278257408 -2.220446049250313E-16 -0.04344029060369536
vn -0.99905603278257408 -2.220446049250313E-16 -0.04344029060369536
vn -1.9470718870540082E-07 0 0.99999999999998096
vn -1.9470718870540082E-07 0 0.99999999999998096
vn -1.9470718870540082E-07 0 0.99999999999998096
vn -1.9470718870540082E-07 0 0.99999999999998096
vn -0.99917923615436416 -3.3306690738754696E-16 -0.04050748133441395
vn -0.99917923615436416 -3.3306690738754696E-16 -0.04050748133441395
vn -0.99917923615436416 -3.3306690738754696E-16 -0.04050748133441395
vn -0.99917923615436416 -3.3306690738754696E-16 -0.04050748133441395
vn -0.93047426958329776 -3.3306690738754696E-16 -0.36635729906134776
vn -0.93047426958329776 -3.3306690738754696E-16 -0.36635729906134776
vn -0.93047426958329776 -3.3306690738754696E-16 -0.36635729906134776
vn -0.93047426958329776 -3.3306690738754696E-16 -0.36635729906134776
vn 0.97537867548557296 3.3306690738754696E-16 -0.220536712633647
vn 0.97537867548557296 3.3306690738754696E-16 -0.220536712633647
vn 0.97537867548557296 3.3306690738754696E-16 -0.220536712633647
vn 0.97537867548557296 3.3306690738754696E-16 -0.220536712633647
vn -0.79765957771902672 -2.220446049250313E-16 -0.603107965330512
vn -0.79765957771902672 -2.220446049250313E-16 -0.603107965330512
vn -0.79765957771902672 -2.220446049250313E-16 -0.603107965330512
vn -0.79765957771902672 -2.220446049250313E-16 -0.603107965330512
vn -0.42288574813735976 -2.7755575615628914E-16 -0.90618308671818464
vn -0.42288574813735976 -2.7755575615628914E-16 -0.90618308671818464
vn -0.42288574813735976 -2.7755575615628914E-16 -0.90618308671818464
vn -0.42288574813735976 -2.7755575615628914E-16 -0.90618308671818464
vn 0.9330018863423336 3.3306690738754696E-16 -0.35987156344739068
vn 0.9330018863423336 3.3306690738754696E-16 -0.35987156344739068
vn 0.9330018863423336 3.3306690738754696E-16 -0.35987156344739068
vn 0.9330018863423336 3.3306690738754696E-16 -0.35987156344739068
vn -0.92646647867507328 -2.220446049250313E-16 0.37637728295108312
vn -0.92646647867507328 -2.220446049250313E-16 0.37637728295108312
vn -0.92646647867507328 -2.220446049250313E-16 0.37637728295108312
vn -0.92646647867507328 -2.220446049250313E-16 0.37637728295108312
vn -0.9155194350532248 -2.220446049250313E-16 0.40227383430740504
vn -0.9155194350532248 -2.220446049250313E-16 0.40227383430740504
vn -0.9155194350532248 -2.220446049250313E-16 0.40227383430740504
vn -0.9155194350532248 -2.220446049250313E-16 0.40227383430740504
vn 0.2663346319589388 5.551115123125783E-17 -0.96388066589711488
vn 0.2663346319589388 5.551115123125783E-17 -0.96388066589711488
vn 0.2663346319589388 5.551115123125783E-17 -0.96388066589711488
vn 0.2663346319589388 5.551115123125783E-17 -0.96388066589711488
vn -0.9725790476639416 -3.3306690738754696E-16 0.23257257479012128
vn -0.9725790476639416 -3.3306690738754696E-16 0.23257257479012128
vn -0.9725790476639416 -3.3306690738754696E-16 0.23257257479012128
vn -0.9725790476639416 -3.3306690738754696E-16 0.23257257479012128
vn -0.63323840667258976 -2.220446049250313E-16 0.77395677157851744
vn -0.63323840667258976 -2.220446049250313E-16 0.77395677157851744
vn -0.63323840667258976 -2.220446049250313E-16 0.77395677157851744
vn -0.63323840667258976 -2.220446049250313E-16 0.77395677157851744
vn 0.99916810591332496 2.220446049250313E-16 -0.04078142261939971
vn 0.99916810591332496 2.220446049250313E-16 -0.04078142261939971
vn 0.99916810591332496 2.220446049250313E-16 -0.04078142261939971
vn 0.99916810591332496 2.220446049250313E-16 -0.04078142261939971
vn -0.97820893992370528 -3.3306690738754696E-16 0.20762305286760052
vn -0.97820893992370528 -3.3306690738754696E-16 0.20762305286760052
vn -0.97820893992370528 -3.3306690738754696E-16 0.20762305286760052
vn -0.97820893992370528 -3.3306690738754696E-16 0.20762305286760052
vn -0.79201024736834032 -2.220446049250313E-16 0.6105077512731688
vn -0.79201024736834032 -2.220446049250313E-16 0.6105077512731688
vn -0.79201024736834032 -2.220446049250313E-16 0.6105077512731688
vn -0.79201024736834032 -2.220446049250313E-16 0.6105077512731688
vn 0.99578521850081712 2.220446049250313E-16 0.0917164089009997
vn 0.99578521850081712 2.220446049250313E-16 0.0917164089009997
vn 0.99578521850081712 2.220446049250313E-16 0.0917164089009997
vn 0.99578521850081712 2.220446049250313E-16 0.0917164089009997
vn -0.82828341903281248 -2.220446049250313E-16 0.560309427636424
vn -0.82828341903281248 -2.220446049250313E-16 0.560309427636424
vn -0.82828341903281248 -2.220446049250313E-16 0.560309427636424
vn -0.82828341903281248 -2.220446049250313E-16 0.560309427636424
vn 0.88721659821732416 4.440892098500626E-16 -0.46135321866147952
vn 0.88721659821732416 4.440892098500626E-16 -0.46135321866147952
vn 0.88721659821732416 4.440892098500626E-16 -0.46135321866147952
vn 0.88721659821732416 4.440892098500626E-16 -0.46135321866147952
vn -0.87503454573474512 -2.220446049250313E-16 0.48406044492562496
vn -0.87503454573474512 -2.220446049250313E-16 0.48406044492562496
vn -0.87503454573474512 -2.220446049250313E-16 0.48406044492562496
vn -0.87503454573474512 -2.220446049250313E-16 0.48406044492562496
vn 0.99160047903683184 3.3306690738754696E-16 -0.1293388611551362
vn 0.99160047903683184 3.3306690738754696E-16 -0.1293388611551362
vn 0.99160047903683184 3.3306690738754696E-16 -0.1293388611551362
vn 0.99160047903683184 3.3306690738754696E-16 -0.1293388611551362
vn -0.95816797405869552 -2.220446049250313E-16 -0.28620658099617312
vn -0.95816797405869552 -2.220446049250313E-16 -0.28620658099617312
vn -0.95816797405869552 -2.220446049250313E-16 -0.28620658099617312
vn -0.95816797405869552 -2.220446049250313E-16 -0.28620658099617312
vn 0.99999999999998096 2.220446049250313E-16 1.9470718864988967E-07
vn 0.99999999999998096 2.220446049250313E-16 1.9470718864988967E-07
vn 0.99999999999998096 2.220446049250313E-16 1.9470718864988967E-07
vn 0.99999999999998096 2.220446049250313E-16 1.9470718864988967E-07
vn -0.95540225295217424 -2.220446049250313E-16 0.29530759924891724
vn -0.95540225295217424 -2.220446049250313E-16 0.29530759924891724
vn -0.95540225295217424 -2.220446049250313E-16 0.29530759924891724
vn -0.95540225295217424 -2.220446049250313E-16 0.29530759924891724
# 198 vertex normals

vt 0 0.26042985916137696 0
vt 0 0.31633436679840088 0
vt 0.1284109354019165 0.34962594509124756 0
vt 0.21166062355041504 0.38173651695251464 0
vt 0.23663544654846192 0.47212195396423336 0
vt 0.35318505764007568 0.47687900066375736 0
vt 0.4435705542564392 0.46855401992797848 0
vt 0.50303447246551512 0.49947535991668704 0
vt 0.58509492874145504 0.51017892360687256 0
vt 0.6683446168899536 0.51017898321151736 0
vt 0.72424077987670896 0.56369662284851072 0
vt 0.83008706569671632 0.68381392955780032 0
vt 0.91690444946289056 0.68500322103500368 0
vt 1 0.64694631099700928 0
vt 1 0.5166490077972412 0
vt 0.98469340801239008 0.5173145532608032 0
vt 0.9537723064422608 0.53991079330444336 0
vt 0.92047250270843504 0.61126774549484256 0
vt 0.84197974205017088 0.57677859067916872 0
vt 0.78846204280853264 0.51136815547943112 0
vt 0.73137664794921872 0.46736478805541992 0
vt 0.69094097614288328 0.44001126289367672 0
vt 0.6350446939468384 0.40909004211425784 0
vt 0.54347002506256104 0.43644356727600096 0
vt 0.47805970907211304 0.41622567176818848 0
vt 0.44713830947875976 0.38887226581573488 0
vt 0.38886344432830808 0.36270797252655032 0
vt 0.38886350393295288 0.3210831880569458 0
vt 0.34961724281311036 0.28540480136871336 0
vt 0.26161038875579832 0.28897261619567872 0
vt 0.2128499150276184 0.32584023475646972 0
vt 0.1367359459400177 0.2949190139770508 0
vt 0.08202898502349854 0.28183686733245848 0
vt 0 0.26042985916137696 0
vt 0.08202898502349854 0.28183686733245848 0
vt 0.1367359459400177 0.2949190139770508 0
vt 0.2128499150276184 0.32584023475646972 0
vt 0.26161038875579832 0.28897261619567872 0
vt 0.34961724281311036 0.28540480136871336 0
vt 0.38886350393295288 0.3210831880569458 0
vt 0.38886344432830808 0.36270797252655032 0
vt 0.44713830947875976 0.38887226581573488 0
vt 0.47805970907211304 0.41622567176818848 0
vt 0.54347002506256104 0.43644356727600096 0
vt 0.6350446939468384 0.40909004211425784 0
vt 0.69094097614288328 0.44001126289367672 0
vt 0.73137664794921872 0.46736478805541992 0
vt 0.78846204280853264 0.51136815547943112 0
vt 0.84197974205017088 0.57677859067916872 0
vt 0.92047250270843504 0.61126774549484256 0
vt 0.9537723064422608 0.53991079330444336 0
vt 0.98469340801239008 0.5173145532608032 0
vt 1 0.5166490077972412 0
vt 1 0.64694631099700928 0
vt 0.91690444946289056 0.68500322103500368 0
vt 0.83008706569671632 0.68381392955780032 0
vt 0.72424077987670896 0.56369662284851072 0
vt 0.6683446168899536 0.51017898321151736 0
vt 0.58509492874145504 0.51017892360687256 0
vt 0.50303447246551512 0.49947535991668704 0
vt 0.4435705542564392 0.46855401992797848 0
vt 0.35318505764007568 0.47687900066375736 0
vt 0.23663544654846192 0.47212195396423336 0
vt 0.21166062355041504 0.38173651695251464 0
vt 0.1284109354019165 0.34962594509124756 0
vt 0 0.31633436679840088 0
# 66 texture coords

g Pathway_01
usemtl Unnamed Material.001
s 1
f 2/1/1 1/2/2 5/3/3 6/4/4 7/5/5 8/6/6 9/7/7 10/8/8 11/9/9 12/10/10 13/11/11 14/12/12 15/13/13 4/14/14 3/15/15 16/16/16 17/17/17 18/18/18 19/19/19 20/20/20 21/21/21 22/22/22 23/23/23 24/24/24 25/25/25 26/26/26 27/27/27 28/28/28 29/29/29 30/30/30 31/31/31 32/32/32 33/33/33
f 35/34/34 66/35/35 65/36/36 64/37/37 63/38/38 62/39/39 61/40/40 60/41/41 59/42/42 58/43/43 57/44/44 56/45/45 55/46/46 54/47/47 53/48/48 52/49/49 51/50/50 50/51/51 49/52/52 36/53/53 37/54/54 48/55/55 47/56/56 46/57/57 45/58/58 44/59/59 43/60/60 42/61/61 41/62/62 40/63/63 39/64/64 38/65/65 34/66/66
f 13/11/67 12/10/68 45/58/69 46/57/70
f 26/26/71 25/25/72 58/43/73 59/42/74
f 14/12/75 13/11/76 46/57/77 47/56/78
f 27/27/79 26/26/80 59/42/81 60/41/82
f 15/13/83 14/12/84 47/56/85 48/55/86
f 28/28/87 27/27/88 60/41/89 61/40/90
f 4/14/91 15/13/92 48/55/93 37/54/94
f 1/2/95 2/1/96 35/34/97 34/66/98
f 29/29/99 28/28/100 61/40/101 62/39/102
f 16/16/103 3/15/104 36/53/105 49/52/106
f 3/15/107 4/14/108 37/54/109 36/53/110
f 30/30/111 29/29/112 62/39/113 63/38/114
f 17/17/115 16/16/116 49/52/117 50/51/118
f 5/3/119 1/2/120 34/66/121 38/65/122
f 31/31/123 30/30/124 63/38/125 64/37/126
f 18/18/127 17/17/128 50/51/129 51/50/130
f 6/4/131 5/3/132 38/65/133 39/64/134
f 32/32/135 31/31/136 64/37/137 65/36/138
f 19/19/139 18/18/140 51/50/141 52/49/142
f 7/5/143 6/4/144 39/64/145 40/63/146
f 33/33/147 32/32/148 65/36/149 66/35/150
f 20/20/151 19/19/152 52/49/153 53/48/154
f 8/6/155 7/5/156 40/63/157 41/62/158
f 2/1/159 33/33/160 66/35/161 35/34/162
f 21/21/163 20/20/164 53/48/165 54/47/166
f 9/7/167 8/6/168 41/62/169 42/61/170
f 22/22/171 21/21/172 54/47/173 55/46/174
f 10/8/175 9/7/176 42/61/177 43/60/178
f 23/23/179 22/22/180 55/46/181 56/45/182
f 11/9/183 10/8/184 43/60/185 44/59/186
f 24/24/187 23/23/188 56/45/189 57/44/190
f 12/10/191 11/9/192 44/59/193 45/58/194
f 25/25/195 24/24/196 57/44/197 58/43/198
#35 polygons

