# Aspose.3D Wavefront OBJ Exporter
# Copyright 2004-2022 Aspose Pty Ltd.
# File created: 03/24/2022 15:19:31

mtllib material.lib

#
# object Stone_01
#

v -5.61601703596669744 -10.24729548830838688 -32.25283340132543232
v -30.56230834092813712 17.41547852230626248 -2.11064011041616162
v 29.80824741391881712 -26.8747361320556592 -15.31755229991762768
v 17.43330314712838816 0.08461919321076 19.1618634667030463
v -9.70123019289496472 13.22893372932379564 21.95600972316315952
v 1.69582369215368352 -2.55070390584308624 -29.45890653293887952
v -22.26234509578036836 22.15785969688345248 -7.91544944556658608
v 28.28386685750057696 -10.86105094098427056 -13.06931493261423682
v 12.00104179053830222 13.73722059413366384 17.60057861906451392
v -4.14646034655700202 19.0663905645102183 10.55837998792268448
# 10 vertices

vn -0.43738128109963216 -0.86382987076004144 0.24999107115569428
vn -0.43738128109963216 -0.86382987076004144 0.24999107115569428
vn -0.43738128109963216 -0.86382987076004144 0.24999107115569428
vn -0.43738128109963216 -0.86382987076004144 0.24999107115569428
vn 0.48968575056069728 0.80918965863362896 -0.32468441237587676
vn 0.48968575056069728 0.80918965863362896 -0.32468441237587676
vn 0.48968575056069728 0.80918965863362896 -0.32468441237587676
vn 0.53303728006915464 0.7883362559188952 -0.3072413972623358
vn 0.53303728006915464 0.7883362559188952 -0.3072413972623358
vn 0.53303728006915464 0.7883362559188952 -0.3072413972623358
vn -0.60958862130367016 -0.69754205462701368 0.37661231057440656
vn -0.60958862130367016 -0.69754205462701368 0.37661231057440656
vn -0.60958862130367016 -0.69754205462701368 0.37661231057440656
vn 0.92552952742262112 0.02409220083994356 0.37790830021960952
vn 0.92552952742262112 0.02409220083994356 0.37790830021960952
vn 0.92552952742262112 0.02409220083994356 0.37790830021960952
vn 0.92552952742262112 0.02409220083994356 0.37790830021960952
vn 0.42461758576779488 0.80678074352736768 -0.41085856673114128
vn 0.42461758576779488 0.80678074352736768 -0.41085856673114128
vn 0.42461758576779488 0.80678074352736768 -0.41085856673114128
vn -0.58888622229287792 0.22046286494407896 -0.77756615831743488
vn -0.58888622229287792 0.22046286494407896 -0.77756615831743488
vn -0.58888622229287792 0.22046286494407896 -0.77756615831743488
vn -0.58888622229287792 0.22046286494407896 -0.77756615831743488
vn -0.3659843235848896 0.78528220107889408 0.4993870373155796
vn -0.3659843235848896 0.78528220107889408 0.4993870373155796
vn -0.3659843235848896 0.78528220107889408 0.4993870373155796
vn -0.3659843235848896 0.78528220107889408 0.4993870373155796
vn -0.00284768077295205 0.42202079345816488 0.90658169604686176
vn -0.00284768077295205 0.42202079345816488 0.90658169604686176
vn -0.00284768077295205 0.42202079345816488 0.90658169604686176
vn -0.00284768077295205 0.42202079345816488 0.90658169604686176
vn 0.41525483407832752 -0.21622183063416636 -0.883635407549716
vn 0.41525483407832752 -0.21622183063416636 -0.883635407549716
vn 0.41525483407832752 -0.21622183063416636 -0.883635407549716
vn 0.41525483407832752 -0.21622183063416636 -0.883635407549716
# 36 vertex normals

vt 1 0 0
vt 0.25818440318107604 0 0
vt 0.88860487937927248 0.98545354604721072 0
vt 1 0.5 0
vt 0.12170690298080444 0 0
vt 0.91698086261749264 0.5 0
vt 0 0.78069078922271728 0
vt 1 0 0
vt 0 0.64530801773071288 0
vt 0.98597103357315056 1 0
# 10 texture coords

g Stone_01
usemtl Col_StoneGrey_02.010
s 1
f 2/1/1 1/2/2 4/3/3 5/4/4
f 6/5/5 10/6/6 8/7/7
f 7/8/8 10/6/9 6/5/10
f 1/2/11 3/9/12 4/3/13
f 8/7/14 9/10/15 4/3/16 3/9/17
f 8/7/18 10/6/19 9/10/20
f 7/8/21 6/5/22 1/2/23 2/1/24
f 10/6/25 7/8/26 2/1/27 5/4/28
f 9/10/29 10/6/30 5/4/31 4/3/32
f 8/7/33 3/9/34 1/2/35 6/5/36
#10 polygons

