# Aspose.3D Wavefront OBJ Exporter
# Copyright 2004-2022 Aspose Pty Ltd.
# File created: 03/24/2022 15:30:19

mtllib material.lib

#
# object Plane_003
#

v -27.36646689027043424 2.17344069451746158 21.335756353886719
v 25.15860614242854254 -0.47813918438908368 22.4457872616654832
v -38.81713659976617952 -1.4549843106853144 -18.73112699257182704
v 9.70332894367851576 0.26826631399981528 -24.70832792708392488
v -22.71267640434132672 21.07551528139946839 15.79098105530249888
v 16.48250375761881872 20.97473392315531632 25.55741754346877312
v -26.6257292536115564 20.00881516881554489 -16.79097671436579024
v 16.16607626430664268 19.71807907587799488 -17.78467553340225744
v 20.67169846409069936 19.31745094735196844 1.15242721127167558
# 9 vertices

vn -0.09945570677518844 -0.99504095315933232 0.00142204586882133
vn -0.09945570677518844 -0.99504095315933232 0.00142204586882133
vn -0.09945570677518844 -0.99504095315933232 0.00142204586882133
vn 0.05584122240543365 0.99589478969573968 -0.07124188542366006
vn 0.05584122240543365 0.99589478969573968 -0.07124188542366006
vn 0.05584122240543365 0.99589478969573968 -0.07124188542366006
vn 0.03667450696229934 0.99123245477676384 -0.12693807482719422
vn 0.03667450696229934 0.99123245477676384 -0.12693807482719422
vn 0.03667450696229934 0.99123245477676384 -0.12693807482719422
vn 0.97187840938568112 0.18820706009864808 0.14152878522872928
vn 0.97187840938568112 0.18820706009864808 0.14152878522872928
vn 0.97187840938568112 0.18820706009864808 0.14152878522872928
vn 0.08786020427942276 -0.9845646619796752 0.15137088298797586
vn 0.08786020427942276 -0.9845646619796752 0.15137088298797586
vn 0.08786020427942276 -0.9845646619796752 0.15137088298797586
vn -0.07832822948694229 0.12510134279727958 -0.98904716968536384
vn -0.07832822948694229 0.12510134279727958 -0.98904716968536384
vn -0.07832822948694229 0.12510134279727958 -0.98904716968536384
vn -0.07832822948694229 0.12510134279727958 -0.98904716968536384
vn 0.0143290925770998 0.99915856122970576 0.03842978924512874
vn 0.0143290925770998 0.99915856122970576 0.03842978924512874
vn 0.0143290925770998 0.99915856122970576 0.03842978924512874
vn -0.12540359795093536 0.01402611657977082 0.99200659990310672
vn -0.12540359795093536 0.01402611657977082 0.99200659990310672
vn -0.12540359795093536 0.01402611657977082 0.99200659990310672
vn -0.12540359795093536 0.01402611657977082 0.99200659990310672
vn 0.96026074886322016 -0.05861048400402064 -0.27288112044334412
vn 0.96026074886322016 -0.05861048400402064 -0.27288112044334412
vn 0.96026074886322016 -0.05861048400402064 -0.27288112044334412
vn 0.96026074886322016 -0.05861048400402064 -0.27288112044334412
vn -0.96154952049255376 0.21385003626346584 0.17230993509292608
vn -0.96154952049255376 0.21385003626346584 0.17230993509292608
vn -0.96154952049255376 0.21385003626346584 0.17230993509292608
vn -0.96154952049255376 0.21385003626346584 0.17230993509292608
# 34 vertex normals

vt 0.89651364088058464 0.99706512689590448 0
vt 1 0.10026764869689942 0
vt 0.22451956570148468 0 0
vt 0.12526683509349822 0 0
vt 0.93179011344909664 0.5 0
vt 0 0.79468649625778192 0
vt 1 0 0
vt 0 0.64217096567153928 0
vt 1.00536072254180908 0.9999999403953552 0
# 9 texture coords

g Plane_003
usemtl Col_StoneGrey_02.010
s 1
f 4/1/1 2/2/2 1/3/3
f 5/4/4 9/5/5 7/6/6
f 6/7/7 9/5/8 5/4/9
f 2/2/10 9/5/11 6/7/12
f 1/3/13 3/8/14 4/1/15
f 7/6/16 8/9/17 4/1/18 3/8/19
f 7/6/20 9/5/21 8/9/22
f 6/7/23 5/4/24 1/3/25 2/2/26
f 9/5/27 2/2/28 4/1/29 8/9/30
f 7/6/31 3/8/32 1/3/33 5/4/34
#10 polygons

