# Aspose.3D Wavefront OBJ Exporter
# Copyright 2004-2022 Aspose Pty Ltd.
# File created: 03/24/2022 15:36:21

mtllib material.lib

#
# object Cone
#

v 25.04912156322566119 52.9101714008231952 -87.87166268937647824
v -9.47780709890669648 176.08762566072363143 -15.70336854071360656
v 12.46803803815978992 182.41272724374829296 5.55032981960930096
v 86.91220128821088048 47.98677779692685872 -34.81358034386901328
v 55.7071271848091172 48.55284861170388664 61.98199633965667488
v -34.74461085960576416 50.14871423545285722 94.8705575183484768
v -87.02648056283560152 39.71604303363461952 -41.81277548628165168
v -12.32996017466696516 184.32106900252000516 13.67505156239216288
v 70.311434872765048 113.92348671668534624 -1.02316976934000125
v -4.6994179628814736 225.32035043547617192 -0.03790456143719209
v 46.68165219024753296 121.14745145377145264 60.72374809113898656
v -36.44323623491783336 107.59606270971944752 83.72398370796871344
v -2.76606697668451888 224.91936191903838 19.09302886912477958
v -68.06176186254543836 116.8028093996847048 27.979847896820516
v -60.17543080592968608 113.15756731758685306 -28.05475607937292182
v 5.72657063922875856 120.70418631272261224 -65.52703133443714024
v 1.79001513488075312 185.84262707059787088 -51.30509773482110348
v 40.31793530397602864 182.4184331991211252 -31.2405411207454904
v 44.237881598095683 183.74113371723177584 42.18925342073637096
v -14.90657942252558144 183.77755172713767712 62.01580662785274
v -47.53319095128227904 189.90218407806349888 34.00517660336302583
v -3.06992130052136325 298.33757937738221244 5.39027964836038632
v -53.48640439027058592 186.29622049139396724 -9.10186222080933228
v -33.26702618707879112 187.18835161916030076 -38.18724147372807208
v -4.18554005996130308 -0.93452444245732528 -31.10035480663826136
v -4.18556571173436076 94.36206272805722504 -17.56886683325497952
v 6.23092453933501032 -0.93452444245732576 -28.30927172034533256
v -0.53484478630317488 94.36206272805722504 -16.59065961686107112
v 13.85630699081789888 -0.93452444245732752 -20.68389052016844688
v 2.13766860990759878 94.36206272805722504 -13.918145282170796
v 16.647387574498822 -0.93452444245732976 -10.26742623369863596
v 3.11587520064850842 94.36206272805722504 -10.2674249823926118
v 13.856305739511896 -0.93452444245733216 0.14903805277117698
v 2.13766860990759878 94.36206272805722504 -6.61670343130842384
v 6.23092579064101316 -0.93452444245733392 7.77441800164206048
v -0.53484478630317488 94.36206272805722504 -3.94419159923015488
v -4.18553693169629604 -0.9345244424573344 10.56550108793498664
v -4.18556477325485864 94.36206272805722504 -2.96598438283624384
v -14.60200027968660664 -0.93452444245733392 7.77442050425406624
v -7.83628507303304288 94.36206272805722504 -3.94419159923015488
v -22.22738147986349232 -0.93452444245733216 0.14904305799518824
v -10.5087981564173152 94.36206272805722504 -6.61670218000242104
v -25.01846706876842319 -0.93452444245732976 -10.26741747455661624
v -11.48700662411722992 94.36206272805722504 -10.26742185412760476
v -22.22739149031151484 -0.93452444245732752 -20.68388050972042432
v -10.5088019103353236 94.36206272805722504 -13.91814152825278768
v -14.6020165466646432 -0.93452444245732576 -28.30926671512132132
v -7.83629070391005552 94.36206272805722504 -16.59065711424906552
# 48 vertices

vn -0.00761792017146945 -0.99994665384292608 -0.00696953292936108
vn -0.06612297892570496 -0.99769139289855952 -0.015482201240957
vn -0.00761792017146945 -0.99994665384292608 -0.00696953292936108
vn 0.05091380327939987 -0.998701810836792 0.00156753009650834
vn 0.05091380327939987 -0.998701810836792 0.00156753009650834
vn 0.01653188467025756 -0.99957400560379024 -0.02405220828950416
vn 0.03452392667531967 -0.98974508047103888 -0.13861021399497996
vn 0.01653188467025756 -0.99957400560379024 -0.02405220828950416
vn 0.04905785620212555 -0.99677056074142464 -0.06357411295175563
vn 0.09850383549928666 -0.97134506702423072 -0.2163003683090212
vn 0.04905785620212555 -0.99677056074142464 -0.06357411295175563
vn -0.06364291906356812 -0.99783158302307136 -0.01678381487727176
vn -0.06040671095252037 -0.9959737658500672 -0.06623802334070217
vn -0.05244392529129982 -0.98657912015914912 -0.15463295578956616
vn 0.00515028508380055 -0.99972534179687504 -0.02286056801676761
vn 0.13564673066139222 -0.98868983983993536 0.06397205591201782
vn 0.00283652171492576 -0.9999439716339112 0.01020161341875791
vn -0.05929720774292946 -0.99665564298629744 -0.05622570589184783
vn 0 1 2.220446049250313E-16
vn 0 1 2.220446049250313E-16
vn 0 1 2.220446049250313E-16
vn 0 1 2.220446049250313E-16
vn 0 1 2.220446049250313E-16
vn 0 1 2.220446049250313E-16
vn 0 1 2.220446049250313E-16
vn 0 1 2.220446049250313E-16
vn 0 1 2.220446049250313E-16
vn 0 1 2.220446049250313E-16
vn 0 1 2.220446049250313E-16
vn 0 1 2.220446049250313E-16
vn 0 -1 -2.220446049250313E-16
vn 0 -1 -2.220446049250313E-16
vn 0 -1 -2.220446049250313E-16
vn 0 -1 -2.220446049250313E-16
vn 0 -1 -2.220446049250313E-16
vn 0 -1 -2.220446049250313E-16
vn 0 -1 -2.220446049250313E-16
vn 0 -1 -2.220446049250313E-16
vn 0 -1 -2.220446049250313E-16
vn 0 -1 -2.220446049250313E-16
vn 0 -1 -2.220446049250313E-16
vn 0 -1 -2.220446049250313E-16
vn 0.58230751752853392 0.51207506656646736 -0.63142478466033936
vn 0.58230751752853392 0.51207506656646736 -0.63142478466033936
vn 0.58230751752853392 0.51207506656646736 -0.63142478466033936
vn 0.87310850620269776 0.3997056186199188 0.27913624048233036
vn 0.87310850620269776 0.3997056186199188 0.27913624048233036
vn 0.87310850620269776 0.3997056186199188 0.27913624048233036
vn -0.88734781742095952 0.33802470564842224 0.31361320614814764
vn -0.88734781742095952 0.33802470564842224 0.31361320614814764
vn -0.88734781742095952 0.33802470564842224 0.31361320614814764
vn 0.31027752161026 0.45288318395614624 0.83583772182464608
vn 0.31027752161026 0.45288318395614624 0.83583772182464608
vn 0.31027752161026 0.45288318395614624 0.83583772182464608
vn 0.31027752161026 0.45288318395614624 0.83583772182464608
vn -0.01477724500000476 0.96242135763168336 -0.27115815877914408
vn -0.01477724500000476 0.96242135763168336 -0.27115815877914408
vn -0.01477724500000476 0.96242135763168336 -0.27115815877914408
vn -0.38941070437431336 0.38191235065460216 -0.8381540179252624
vn -0.38941070437431336 0.38191235065460216 -0.8381540179252624
vn -0.38941070437431336 0.38191235065460216 -0.8381540179252624
vn 0.5014657974243164 0.5376840829849244 -0.67781114578247072
vn 0.5014657974243164 0.5376840829849244 -0.67781114578247072
vn 0.5014657974243164 0.5376840829849244 -0.67781114578247072
vn -0.82802903652191168 0.5138258337974548 -0.2243901342153548
vn -0.82802903652191168 0.5138258337974548 -0.2243901342153548
vn -0.82802903652191168 0.5138258337974548 -0.2243901342153548
vn 0.87401127815246576 0.4789319038391112 0.0820269063115121
vn 0.87401127815246576 0.4789319038391112 0.0820269063115121
vn 0.87401127815246576 0.4789319038391112 0.0820269063115121
vn 0.87401127815246576 0.4789319038391112 0.0820269063115121
vn 0.65530037879943848 0.446644812822342 -0.6091715097427368
vn 0.65530037879943848 0.446644812822342 -0.6091715097427368
vn 0.65530037879943848 0.446644812822342 -0.6091715097427368
vn 0.1730894297361374 0.4366454780101776 0.88282543420791632
vn 0.1730894297361374 0.4366454780101776 0.88282543420791632
vn 0.1730894297361374 0.4366454780101776 0.88282543420791632
vn -0.8700960278511048 0.46855393052101136 -0.15293869376182546
vn -0.8700960278511048 0.46855393052101136 -0.15293869376182546
vn -0.8700960278511048 0.46855393052101136 -0.15293869376182546
vn -0.48304063081741336 0.4295055568218232 -0.76301819086074832
vn -0.48304063081741336 0.4295055568218232 -0.76301819086074832
vn -0.48304063081741336 0.4295055568218232 -0.76301819086074832
vn -0.80526375770568848 0.51104128360748288 0.3006444573402406
vn -0.80526375770568848 0.51104128360748288 0.3006444573402406
vn -0.80526375770568848 0.51104128360748288 0.3006444573402406
vn -0.80526375770568848 0.51104128360748288 0.3006444573402406
vn 0.44861367344856264 0.41760620474815384 -0.7901588082313536
vn 0.44861367344856264 0.41760620474815384 -0.7901588082313536
vn 0.44861367344856264 0.41760620474815384 -0.7901588082313536
vn 0.92910873889923088 0.36551401019096368 -0.05618320778012265
vn 0.92910873889923088 0.36551401019096368 -0.05618320778012265
vn 0.92910873889923088 0.36551401019096368 -0.05618320778012265
vn 0.2915988564491272 0.3994722664356232 0.869132936000824
vn 0.2915988564491272 0.3994722664356232 0.869132936000824
vn 0.2915988564491272 0.3994722664356232 0.869132936000824
vn -0.5462015867233276 0.41585069894790624 0.72713965177536016
vn -0.5462015867233276 0.41585069894790624 0.72713965177536016
vn -0.5462015867233276 0.41585069894790624 0.72713965177536016
vn -0.9124347567558288 0.39859214425086984 0.0926672294735909
vn -0.9124347567558288 0.39859214425086984 0.0926672294735909
vn -0.9124347567558288 0.39859214425086984 0.0926672294735909
vn -0.75597292184829712 0.40653625130653384 -0.51306253671646104
vn -0.75597292184829712 0.40653625130653384 -0.51306253671646104
vn -0.75597292184829712 0.40653625130653384 -0.51306253671646104
vn -0.30420982837677 0.41821250319480904 -0.85589414834976192
vn -0.30420982837677 0.41821250319480904 -0.85589414834976192
vn -0.30420982837677 0.41821250319480904 -0.85589414834976192
vn 0.2564184069633484 0.13588303327560448 -0.9569667577743528
vn 0.2564184069633484 0.13588303327560448 -0.9569667577743528
vn 0.2564184069633484 0.13588303327560448 -0.9569667577743528
vn 0.2564184069633484 0.13588303327560448 -0.9569667577743528
vn 0.70054835081100464 0.1358831673860551 -0.70054829120635984
vn 0.70054835081100464 0.1358831673860551 -0.70054829120635984
vn 0.70054835081100464 0.1358831673860551 -0.70054829120635984
vn 0.70054835081100464 0.1358831673860551 -0.70054829120635984
vn 0.95696687698364256 0.13588324189186096 -0.25641807913780212
vn 0.95696687698364256 0.13588324189186096 -0.25641807913780212
vn 0.95696687698364256 0.13588324189186096 -0.25641807913780212
vn 0.95696687698364256 0.13588324189186096 -0.25641807913780212
vn 0.95696675777435296 0.13588321208953852 0.2564184069633484
vn 0.95696675777435296 0.13588321208953852 0.2564184069633484
vn 0.95696675777435296 0.13588321208953852 0.2564184069633484
vn 0.95696675777435296 0.13588321208953852 0.2564184069633484
vn 0.70054817199707032 0.13588315248489368 0.70054841041564944
vn 0.70054817199707032 0.13588315248489368 0.70054841041564944
vn 0.70054817199707032 0.13588315248489368 0.70054841041564944
vn 0.70054817199707032 0.13588315248489368 0.70054841041564944
vn 0.256418377161026 0.13588303327560424 0.95696681737899776
vn 0.256418377161026 0.13588303327560424 0.95696681737899776
vn 0.256418377161026 0.13588303327560424 0.95696681737899776
vn 0.256418377161026 0.13588303327560424 0.95696681737899776
vn -0.2564184069633484 0.1358829140663147 0.95696681737899776
vn -0.2564184069633484 0.1358829140663147 0.95696681737899776
vn -0.2564184069633484 0.1358829140663147 0.95696681737899776
vn -0.2564184069633484 0.1358829140663147 0.95696681737899776
vn -0.7005480527877808 0.13588276505470264 0.70054858922958376
vn -0.7005480527877808 0.13588276505470264 0.70054858922958376
vn -0.7005480527877808 0.13588276505470264 0.70054858922958376
vn -0.7005480527877808 0.13588276505470264 0.70054858922958376
vn -0.95696675777435296 0.13588270545005792 0.25641876459121704
vn -0.95696675777435296 0.13588270545005792 0.25641876459121704
vn -0.95696675777435296 0.13588270545005792 0.25641876459121704
vn -0.95696675777435296 0.13588270545005792 0.25641876459121704
vn -0.95696693658828736 0.13588272035121924 -0.25641795992851256
vn -0.95696693658828736 0.13588272035121924 -0.25641795992851256
vn -0.95696693658828736 0.13588272035121924 -0.25641795992851256
vn -0.95696693658828736 0.13588272035121924 -0.25641795992851256
vn -0.7005489468574524 0.13588280975818646 -0.70054775476455688
vn -0.7005489468574524 0.13588280975818646 -0.70054775476455688
vn -0.7005489468574524 0.13588280975818646 -0.70054775476455688
vn -0.7005489468574524 0.13588280975818646 -0.70054775476455688
vn -0.25641864538192748 0.13588289916515372 -0.9569667577743528
vn -0.25641864538192748 0.13588289916515372 -0.9569667577743528
vn -0.25641864538192748 0.13588289916515372 -0.9569667577743528
vn -0.25641864538192748 0.13588289916515372 -0.9569667577743528
# 156 vertex normals

vt 0.27844214439392088 0.07153081893920898 0
vt 0.14616382122039794 0 0
vt 0 0.11761045455932618 0
vt 0.00303351879119873 0.29512357711791992 0
vt 0.27288031578063964 0.29512357711791992 0
vt 0.518221378326416 0.48146915435791016 0
vt 0.518221378326416 0.34153199195861816 0
vt 0.35579299926757812 0.2969346046447754 0
vt 0.27844202518463136 0.39109408855438232 0
vt 0.31730270385742188 0.54550039768218992 0
vt 0.43562269210815432 0.54521417617797848 0
vt 0.68845832347869872 0.63624143600463864 0
vt 0.69985735416412352 0.7713971138000488 0
vt 0.8129515647888184 0.7926663160324096 0
vt 0.86544984579086304 0.73314607143402096 0
vt 0.86544984579086304 0.65291702747344968 0
vt 0.82113957405090336 0.60487031936645504 0
vt 0.75376760959625248 0.58978497982025144 0
vt 0.58169496059417728 0.24329006671905516 0
vt 0.5782402753829956 0.24933922290802 0
vt 0.5782402753829956 0.25630903244018556 0
vt 0.581695020198822 0.26233172416687012 0
vt 0.58767879009246824 0.26579380035400392 0
vt 0.59458822011947632 0.26576733589172364 0
vt 0.60057199001312256 0.26225960254669188 0
vt 0.60402667522430416 0.25621044635772704 0
vt 0.60402667522430416 0.24924075603485108 0
vt 0.60057199001312256 0.24321794509887696 0
vt 0.59458822011947632 0.23975598812103272 0
vt 0.58767879009246824 0.23978233337402344 0
vt 0.68845826387405392 0.81984257698059088 0
vt 0.68845832347869872 0.8397369980812072 0
vt 0.69840526580810544 0.85696607828140256 0
vt 0.71563380956649784 0.86691325902938848 0
vt 0.73552757501602176 0.86691325902938848 0
vt 0.75275599956512448 0.85696607828140256 0
vt 0.7627028822898864 0.8397369980812072 0
vt 0.76270282268524176 0.81984257698059088 0
vt 0.75275588035583504 0.80261355638504032 0
vt 0.73552733659744256 0.7926663160324096 0
vt 0.71563357114791872 0.7926663160324096 0
vt 0.69840508699417112 0.80261349678039552 0
vt 0.27844214439392088 0.12383651733398438 0
vt 0.53000366687774656 0.27860975265502928 0
vt 0.38034987449646 0.04032957553863525 0
vt 0.53000366687774656 0 0
vt 0.2689344882965088 0.56700158119201664 0
vt 0.1622098684310913 0.29512357711791992 0
vt 0 0.56700158119201664 0
vt 0.27844214439392088 0.82096242904663088 0
vt 0.45553803443908688 0.82096242904663088 0
vt 0.40880167484283448 0.54856085777282712 0
vt 0.36071658134460448 0.54550051689147952 0
vt 0.5782402753829956 0.29097771644592284 0
vt 0.55266112089157104 0.23975598812103272 0
vt 0.53000366687774656 0.29097771644592284 0
vt 0.71444380283355712 0.58978497982025144 0
vt 0.71444380283355712 0.2969346046447754 0
vt 0.518221378326416 0.4809513092041016 0
vt 0.4834944009780884 0.2969346046447754 0
vt 0.1098102331161499 0.29805874824523924 0
vt 0.74912750720977776 0.22533237934112548 0
vt 0.74912750720977776 0 0
vt 0.64945328235626224 0.01289629936218261 0
vt 0.71757888793945312 0.23975598812103272 0
vt 0.53000366687774656 0.1092754602432251 0
vt 0.71444386243820192 0.37686562538146976 0
vt 0.85401767492294304 0.55014109611511232 0
vt 0.85401767492294304 0.2969346046447754 0
vt 0.06013494729995728 0.56700158119201664 0
vt 0 0.79514789581298832 0
vt 0.09781616926193238 0.79514789581298832 0
vt 0.98879736661911008 0.52073609828948976 0
vt 0.98879736661911008 0.2969346046447754 0
vt 0.8540176153182984 0.32740092277526856 0
vt 0.21105164289474488 0.79379320144653328 0
vt 0.09541136026382446 0.56708908081054688 0
vt 0.68845832347869872 0.82833850383758544 0
vt 0.56295496225357056 0.62929904460906984 0
vt 0.5182214975357056 0.67067420482635496 0
vt 0.68845832347869872 0.58978497982025144 0
vt 1 0.23522520065307616 0
vt 1 0 0
vt 0.88795191049575808 0.02572083473205566 0
vt 0.74912756681442256 0.03781712055206299 0
vt 0.88795197010040288 0.22781217098236084 0
vt 0.81048208475112912 0.02036881446838379 0
vt 0.88795197010040288 0 0
vt 0.86544990539550784 0.62505638599395752 0
vt 0.98351126909255984 0.82031404972076416 0
vt 0.9162444472312928 0.60557973384857176 0
vt 0.98351126909255984 0.58978497982025144 0
vt 0.4933587312698364 0.72230005264282224 0
vt 0.48941069841384888 0.89751625061035152 0
vt 0.4951297640800476 0.8985304832458496 0
vt 0.50967681407928464 0.72519373893737792 0
vt 0.45553809404373168 0.54815268516540528 0
vt 0.47468328475952152 0.72230017185211184 0
vt 0.48088449239730832 0.72137069702148432 0
vt 0.4732317328453064 0.54550051689147952 0
vt 0.48784804344177248 0.72137069702148432 0
vt 0.49310052394866944 0.54550051689147952 0
vt 0.49370801448822024 0.72230017185211184 0
vt 0.50982052087783816 0.54815268516540528 0
vt 0.21105167269706728 0.56998038291931152 0
vt 0.229204922914505 0.74300396442413328 0
vt 0.23528945446014404 0.74196004867553712 0
vt 0.2284124493598938 0.56700158119201664 0
vt 0.24226126074790956 0.74196004867553712 0
vt 0.24830487370491028 0.56700158119201664 0
vt 0.248252272605896 0.74300396442413328 0
vt 0.2653988301753998 0.5699801445007324 0
vt 0.21105167269706728 0.74620914459228512 0
vt 0.22715792059898376 0.91832578182220464 0
vt 0.23306521773338316 0.91720247268676752 0
vt 0.227906733751297 0.74300408363342288 0
vt 0.24003258347511292 0.91720247268676752 0
vt 0.24778647720813752 0.74300408363342288 0
vt 0.24619314074516296 0.91832578182220464 0
vt 0.26536417007446288 0.74620914459228512 0
vt 0.45553800463676456 0.72519373893737792 0
vt 0.47615543007850648 0.8985304832458496 0
vt 0.48246559500694272 0.89751625061035152 0
vt 0.47354254126548768 0.72230005264282224 0
# 124 texture coords

g Cone
usemtl Col_Tree_Pine_Needles_01
s 1
f 1/1/1 4/2/2 5/3/3 6/4/4 7/5/5
f 15/6/6 16/7/7 9/8/8 11/9/9 12/10/10 14/11/11
f 18/12/12 19/13/13 20/14/14 21/15/15 23/16/16 24/17/17 17/18/18
f 28/19/19 26/20/20 48/21/21 46/22/22 44/23/23 42/24/24 40/25/25 38/26/26 36/27/27 34/28/28 32/29/29 30/30/30
f 25/31/31 27/32/32 29/33/33 31/34/34 33/35/35 35/36/36 37/37/37 39/38/38 41/39/39 43/40/40 45/41/41 47/42/42
f 1/43/43 3/44/44 4/45/45
f 3/44/46 5/46/47 4/45/48
f 6/47/49 8/48/50 7/49/51
f 6/50/52 5/51/53 3/52/54 8/53/55
f 3/54/56 2/55/57 8/56/58
f 7/57/59 2/58/60 1/59/61
f 2/60/62 3/44/63 1/43/64
f 8/48/65 2/61/66 7/49/67
f 13/62/68 11/63/69 9/64/70 10/65/71
f 16/66/72 10/65/73 9/64/74
f 11/67/75 13/68/76 12/69/77
f 10/70/78 15/71/79 14/72/80
f 10/73/81 16/74/82 15/75/83
f 10/70/84 14/72/85 12/76/86 13/77/87
f 22/78/88 18/79/89 17/80/90
f 18/79/91 22/78/92 19/81/93
f 22/82/94 20/83/95 19/84/96
f 20/85/97 22/86/98 21/87/99
f 21/87/100 22/86/101 23/88/102
f 23/89/103 22/90/104 24/91/105
f 24/91/106 22/90/107 17/92/108
f 25/93/109 26/94/110 28/95/111 27/96/112
f 27/97/113 28/98/114 30/99/115 29/100/116
f 29/100/117 30/99/118 32/101/119 31/102/120
f 31/102/121 32/101/122 34/103/123 33/104/124
f 33/105/125 34/106/126 36/107/127 35/108/128
f 35/108/129 36/107/130 38/109/131 37/110/132
f 37/110/133 38/109/134 40/111/135 39/112/136
f 39/113/137 40/114/138 42/115/139 41/116/140
f 41/116/141 42/115/142 44/117/143 43/118/144
f 43/118/145 44/117/146 46/119/147 45/120/148
f 45/121/149 46/122/150 48/123/151 47/124/152
f 47/124/153 48/123/154 26/94/155 25/93/156
#38 polygons

